<?xml version="1.0" encoding="UTF-8"?><svg id="Layer_1" xmlns="http://www.w3.org/2000/svg" viewBox="0 0 158.98 80"><defs><style>.cls-1{fill:none;}.cls-2{fill-rule:evenodd;}.cls-2,.cls-3{fill:#1f1e1d;}</style></defs><path class="cls-3" d="m154.27,54.31v3.09h4.29v1.12h-4.29v3.21h4.6v1.18h-5.83v-9.78h5.83v1.18h-4.6Zm-9.24,7.42c1.01,0,1.77-.33,2.28-.99.51-.66.77-1.57.77-2.72s-.26-2.06-.77-2.72c-.51-.66-1.27-.99-2.28-.99h-2.16v7.42h2.16Zm-.1-8.6c1.45,0,2.56.43,3.33,1.29.77.86,1.15,2.06,1.15,3.6s-.38,2.74-1.15,3.6c-.77.86-1.88,1.29-3.33,1.29h-3.3v-9.78h3.3Zm-15.83,0h1.24v8.6h4.41v1.18h-5.65v-9.78Zm-5.48,6.14l-1.94-5.06-1.95,5.06h3.89Zm.41,1.05h-4.71l-1,2.59h-1.24l3.77-9.78h1.72l3.77,9.78h-1.31l-1-2.59Zm-12.71-2.42c.73,0,1.27-.14,1.61-.43.34-.29.51-.77.51-1.45,0-.63-.17-1.07-.51-1.33-.34-.26-.88-.39-1.62-.39h-2.08v3.6h2.09Zm2.28,5l-1.98-3.84h-2.39v3.84h-1.24v-9.78h3.32c1.17,0,2.04.25,2.61.74.57.49.86,1.21.86,2.16,0,.7-.15,1.3-.46,1.79-.31.49-.76.83-1.36,1.04l2.14,4.06h-1.49Zm-13.81-8.6v3.09h4.29v1.12h-4.29v3.21h4.6v1.18h-5.83v-9.78h5.83v1.18h-4.6Zm-12.98,3.73c0-1.01.18-1.9.53-2.66.36-.76.88-1.36,1.58-1.78.7-.42,1.54-.63,2.52-.63.56,0,1.09.07,1.59.2.5.14.94.32,1.32.56v1.39h-.07c-.37-.32-.8-.57-1.3-.75-.5-.18-1.03-.27-1.58-.27-1.1,0-1.91.35-2.45,1.06-.54.71-.81,1.67-.81,2.89s.26,2.16.79,2.87c.53.7,1.33,1.05,2.4,1.05.44,0,.84-.06,1.21-.18.37-.12.68-.28.96-.5v-2.09h-2.07v-1.08h3.3v3.82c-.58.38-1.13.67-1.65.86-.52.19-1.11.29-1.76.29-.96,0-1.77-.21-2.45-.63-.68-.42-1.19-1.01-1.54-1.77-.35-.76-.52-1.64-.52-2.64Zm-9.08,1.24l-1.94-5.06-1.95,5.06h3.89Zm.41,1.05h-4.71l-1,2.59h-1.24l3.77-9.78h1.72l3.77,9.78h-1.31l-1-2.59Zm-10.83-7.2h1.24v9.78h-1.24v-9.78Zm-6.82,4.78c.73,0,1.27-.14,1.61-.43.34-.29.51-.77.51-1.45,0-.63-.17-1.07-.51-1.33-.34-.26-.88-.39-1.62-.39h-2.08v3.6h2.09Zm2.28,5l-1.98-3.84h-2.39v3.84h-1.24v-9.78h3.32c1.17,0,2.04.25,2.61.74.57.49.86,1.21.86,2.16,0,.7-.15,1.3-.46,1.79-.31.49-.76.83-1.36,1.04l2.14,4.06h-1.49Zm-13.71-.96c1.05,0,1.84-.35,2.36-1.06.53-.71.79-1.67.79-2.87s-.26-2.17-.79-2.87c-.52-.71-1.31-1.06-2.36-1.06s-1.84.35-2.36,1.06c-.52.71-.79,1.67-.79,2.87s.26,2.17.79,2.87c.53.71,1.31,1.06,2.36,1.06Zm0,1.12c-.95,0-1.75-.21-2.42-.63-.67-.42-1.18-1.01-1.53-1.77-.35-.76-.53-1.64-.53-2.66s.18-1.9.53-2.66c.35-.76.86-1.35,1.53-1.77.67-.42,1.48-.63,2.42-.63s1.76.21,2.43.63,1.18,1.01,1.53,1.77c.35.76.53,1.65.53,2.66s-.18,1.9-.53,2.66c-.35.76-.86,1.35-1.53,1.77-.67.42-1.48.63-2.43.63Zm-10.9-8.72h-2.95v-1.24h7.14v1.24h-2.95v8.55h-1.24v-8.55Zm-10.32-.06v3.09h4.29v1.12h-4.29v3.21h4.6v1.18h-5.83v-9.78h5.83v1.18h-4.6Zm-8.18,3.6c.73,0,1.27-.14,1.61-.43.34-.29.51-.77.51-1.45,0-.63-.17-1.07-.51-1.33-.34-.26-.88-.39-1.62-.39h-2.08v3.6h2.09Zm2.28,5l-1.98-3.84h-2.39v3.84h-1.24v-9.78h3.32c1.17,0,2.04.25,2.61.74.57.49.86,1.21.86,2.16,0,.7-.15,1.3-.46,1.79-.31.49-.76.83-1.36,1.04l2.14,4.06h-1.49Zm-10.67-9.78h1.24v9.78h-1.24v-9.78Zm-7.87,8.6c1.01,0,1.77-.33,2.28-.99.51-.66.77-1.57.77-2.72s-.26-2.06-.77-2.72c-.51-.66-1.27-.99-2.28-.99H1.24v7.42h2.16Zm-.1-8.6c1.45,0,2.56.43,3.33,1.29.77.86,1.15,2.06,1.15,3.6s-.38,2.74-1.15,3.6c-.77.86-1.88,1.29-3.33,1.29H0v-9.78h3.3Z"/><path class="cls-3" d="m155.78,80c-.54,0-1.11-.07-1.7-.21-.59-.14-1.15-.33-1.67-.58v-1.34c.62.34,1.19.59,1.72.75.53.16,1.05.24,1.57.24.65,0,1.15-.15,1.5-.44.36-.29.53-.69.53-1.2,0-.35-.1-.64-.3-.87-.2-.23-.45-.42-.74-.56-.3-.14-.7-.3-1.21-.46-.61-.21-1.1-.4-1.47-.59-.37-.19-.69-.45-.95-.8-.26-.35-.39-.8-.39-1.35,0-.82.3-1.48.9-1.98.6-.49,1.41-.74,2.42-.74s1.89.21,2.71.63v1.29c-.93-.52-1.83-.79-2.71-.79-.65,0-1.15.13-1.52.39-.37.26-.55.61-.55,1.06,0,.31.09.57.28.77.19.21.42.37.69.5.27.13.66.28,1.15.46.62.21,1.12.41,1.52.6.39.2.73.48,1.01.86.28.37.41.86.41,1.45s-.13,1.09-.39,1.53c-.26.44-.64.77-1.12,1.01-.49.24-1.05.36-1.69.36m-10.49-1.12c1.05,0,1.84-.35,2.36-1.06.53-.71.79-1.67.79-2.87s-.26-2.17-.79-2.87c-.52-.71-1.31-1.06-2.36-1.06s-1.84.35-2.36,1.06c-.52.71-.79,1.67-.79,2.87s.26,2.17.79,2.87c.53.71,1.31,1.06,2.36,1.06Zm0,1.12c-.95,0-1.75-.21-2.42-.63-.67-.42-1.18-1.01-1.53-1.77-.35-.76-.53-1.64-.53-2.66s.18-1.9.53-2.66c.35-.76.86-1.35,1.53-1.77.67-.42,1.48-.63,2.42-.63s1.76.21,2.43.63c.67.42,1.18,1.01,1.53,1.77.35.76.53,1.65.53,2.66s-.18,1.9-.53,2.66c-.35.76-.86,1.35-1.53,1.77-.67.42-1.48.63-2.43.63Zm-7.66-9.95v9.78h-1.24l-5.26-7.55v7.55h-1.24v-9.78h1.24l5.26,7.55v-7.55h1.24Zm-12.78,6.14l-1.94-5.06-1.95,5.06h3.89Zm.41,1.05h-4.71l-1,2.59h-1.24l3.77-9.78h1.72l3.77,9.78h-1.31l-1-2.59Zm-9.28,2.59h-1.24v-8.72l-3.19,8.72h-1.35l-3.25-8.66v8.66h-1.24v-9.78h2.16l3.02,8.06,2.95-8.06h2.12v9.78Zm-17.5.17c-1.18,0-2.1-.38-2.75-1.13-.65-.75-.98-1.78-.98-3.09v-5.74h1.24v5.69c0,.96.21,1.71.64,2.27.43.56,1.04.84,1.85.84s1.42-.28,1.85-.84c.43-.56.64-1.31.64-2.27v-5.69h1.24v5.74c0,1.3-.33,2.33-.98,3.09-.65.75-1.57,1.13-2.75,1.13Zm-7.24-9.95v9.78h-1.24v-4.53h-5.26v4.53h-1.24v-9.78h1.24v4.1h5.26v-4.1h1.24Zm-17.84,9.95c-.54,0-1.11-.07-1.7-.21-.59-.14-1.15-.33-1.67-.58v-1.34c.62.34,1.19.59,1.72.75.53.16,1.05.24,1.57.24.65,0,1.15-.15,1.5-.44.36-.29.53-.69.53-1.2,0-.35-.1-.64-.3-.87-.2-.23-.45-.42-.74-.56-.3-.14-.7-.3-1.21-.46-.61-.21-1.1-.4-1.47-.59-.37-.19-.69-.45-.95-.8-.26-.35-.39-.8-.39-1.35,0-.82.3-1.48.9-1.98.6-.49,1.41-.74,2.42-.74s1.89.21,2.71.63v1.29c-.93-.52-1.83-.79-2.71-.79-.65,0-1.15.13-1.52.39-.37.26-.55.61-.55,1.06,0,.31.09.57.28.77.19.21.42.37.69.5.27.13.66.28,1.15.46.62.21,1.12.41,1.52.6.39.2.73.48,1,.86.28.37.42.86.42,1.45s-.13,1.09-.39,1.53c-.26.44-.64.77-1.12,1.01-.49.24-1.05.36-1.69.36Zm-10.49-1.12c1.05,0,1.84-.35,2.36-1.06.53-.71.79-1.67.79-2.87s-.26-2.17-.79-2.87c-.52-.71-1.31-1.06-2.36-1.06s-1.84.35-2.36,1.06c-.52.71-.79,1.67-.79,2.87s.26,2.17.79,2.87c.53.71,1.31,1.06,2.36,1.06Zm0,1.12c-.95,0-1.75-.21-2.42-.63-.67-.42-1.18-1.01-1.53-1.77-.35-.76-.53-1.64-.53-2.66s.18-1.9.53-2.66c.35-.76.86-1.35,1.53-1.77.67-.42,1.48-.63,2.42-.63s1.76.21,2.43.63c.67.42,1.18,1.01,1.53,1.77.35.76.53,1.65.53,2.66s-.18,1.9-.53,2.66c-.35.76-.86,1.35-1.53,1.77-.67.42-1.48.63-2.43.63Zm-10.32,0c-.54,0-1.11-.07-1.7-.21-.59-.14-1.15-.33-1.67-.58v-1.34c.62.34,1.19.59,1.72.75.53.16,1.05.24,1.57.24.65,0,1.15-.15,1.5-.44.36-.29.53-.69.53-1.2,0-.35-.1-.64-.3-.87-.2-.23-.45-.42-.74-.56-.3-.14-.7-.3-1.21-.46-.61-.21-1.1-.4-1.47-.59-.37-.19-.69-.45-.95-.8-.26-.35-.39-.8-.39-1.35,0-.82.3-1.48.9-1.98.6-.49,1.41-.74,2.42-.74s1.89.21,2.71.63v1.29c-.93-.52-1.83-.79-2.71-.79-.65,0-1.15.13-1.52.39-.37.26-.55.61-.55,1.06,0,.31.09.57.28.77.19.21.42.37.69.5.27.13.66.28,1.15.46.62.21,1.12.41,1.52.6.39.2.73.48,1.01.86.28.37.42.86.42,1.45s-.13,1.09-.39,1.53c-.26.44-.64.77-1.12,1.01-.49.24-1.05.36-1.69.36Zm-9.33-5.17c.73,0,1.27-.14,1.61-.43.34-.29.51-.77.51-1.45,0-.63-.17-1.07-.51-1.33-.34-.26-.88-.39-1.62-.39h-2.08v3.6h2.09Zm2.28,5l-1.98-3.84h-2.39v3.84h-1.24v-9.78h3.32c1.17,0,2.04.25,2.61.74.57.49.86,1.21.86,2.16,0,.7-.15,1.3-.46,1.79-.31.49-.76.83-1.36,1.04l2.14,4.06h-1.49Zm-12.85.17c-1.18,0-2.1-.38-2.75-1.13-.65-.75-.98-1.78-.98-3.09v-5.74h1.24v5.69c0,.96.21,1.71.64,2.27.43.56,1.04.84,1.85.84s1.42-.28,1.85-.84c.43-.56.64-1.31.64-2.27v-5.69h1.24v5.74c0,1.3-.33,2.33-.98,3.09-.65.75-1.57,1.13-2.75,1.13Zm-9.78,0c-.95,0-1.75-.21-2.41-.63-.66-.42-1.16-1.01-1.49-1.77-.33-.76-.5-1.64-.5-2.66s.17-1.9.5-2.66c.33-.76.83-1.35,1.49-1.77.66-.42,1.46-.63,2.41-.63.52,0,1.01.06,1.49.19.48.13.91.31,1.31.56v1.41h-.06c-.31-.3-.7-.54-1.17-.72-.47-.18-.98-.27-1.53-.27-1.07,0-1.85.35-2.35,1.04-.5.69-.75,1.65-.75,2.87s.25,2.19.75,2.88c.5.69,1.28,1.04,2.34,1.04.53,0,1.04-.09,1.51-.27.47-.18.87-.43,1.2-.75h.06v1.41c-.39.24-.83.43-1.31.56-.48.13-.97.19-1.49.19Zm-11.82-8.77v3.09h4.29v1.12h-4.29v3.21h4.6v1.18h-5.83v-9.78h5.83v1.18h-4.6Zm-7.75,3.6c.73,0,1.27-.14,1.61-.43.34-.29.51-.77.51-1.45,0-.63-.17-1.07-.51-1.33-.34-.26-.88-.39-1.62-.39H1.24v3.6h2.09Zm2.28,5l-1.98-3.84H1.24v3.84H0v-9.78h3.32c1.17,0,2.04.25,2.61.74.57.49.86,1.21.86,2.16,0,.7-.15,1.3-.46,1.79-.31.49-.76.83-1.36,1.04l2.14,4.06h-1.49Z"/><path class="cls-2" d="m13.76,6.35H2.32C1.04,6.35,0,7.38,0,8.67c0,.05,0,.09,0,.14v14.89s0,.09,0,.14c0,1.28,1.04,2.32,2.32,2.32s2.32-1.04,2.32-2.32v-12.87h9.12c6.97.16,12.56,5.86,12.56,12.87s-5.6,12.7-12.56,12.87H2.55c-.07,0-.15-.01-.23-.01C1.04,36.7,0,37.74,0,39.02s1.01,2.29,2.26,2.32h0s.06,0,.06,0h11.44c9.52-.16,17.19-7.94,17.19-17.5S23.29,6.51,13.76,6.35"/><path class="cls-2" d="m69.01,23.99v12.73h-9.15c-6.97-.16-12.56-5.86-12.56-12.87s5.6-12.7,12.56-12.87h11.3c.06,0,.12,0,.18,0,1.28,0,2.32-1.04,2.32-2.32s-1.04-2.32-2.32-2.32c-.04,0-.09,0-.13,0h-11.34c-9.52.16-17.19,7.93-17.19,17.5s7.67,17.33,17.19,17.5h11.5v-.06c1.25-.01,2.26-1.01,2.29-2.25h0v-15.18c0-1.28-1.04-2.32-2.32-2.32s-2.32,1.04-2.32,2.32c0,.05,0,.09,0,.14"/><path class="cls-2" d="m132.59,14.83v6.69h21.75v-12.86c0-1.28,1.04-2.32,2.32-2.32s2.32,1.04,2.32,2.32c0,.05,0,.09,0,.14v30.08s0,.09,0,.14c0,1.28-1.04,2.32-2.32,2.32s-2.32-1.04-2.32-2.32v-12.86h-21.75v12.72s0,.09,0,.14c0,1.28-1.04,2.32-2.32,2.32s-2.32-1.04-2.32-2.32V14.69c0-1.28,1.04-2.32,2.32-2.32s2.32,1.04,2.32,2.32c0,.05,0,.09,0,.14"/><path class="cls-2" d="m109.25,24.66c2.81-1.74,4.69-4.86,4.69-8.42,0-5.47-4.43-9.9-9.9-9.9h0s-16.39,0-16.39,0c-1.28,0-2.32,1.04-2.32,2.32s1.04,2.32,2.32,2.32c.05,0,.09,0,.14,0h16.25c2.91,0,5.26,2.35,5.26,5.26s-2.35,5.26-5.26,5.26h-13.27c-1.28,0-2.32,1.04-2.32,2.32s1.66,2.32,2.32,2.32.09,0,.14,0h8.98c6.56.29,11.78,5.7,11.78,12.33,0,.06,0,.37-.01.56,0,1.28,1.04,2.32,2.32,2.32s2.32-1.02,2.32-2.42c0-.15,0-.3,0-.45,0-5.68-2.78-10.71-7.06-13.81"/><rect class="cls-1" x="0" width="158.98" height="80"/></svg>